<svg width="18" height="18" viewBox="0 0 18 18" fill="none" xmlns="http://www.w3.org/2000/svg">
<path d="M17.4727 0H12.0234C11.7322 0 11.4961 0.236109 11.4961 0.527344V1.93359C11.4961 2.22483 11.7322 2.46094 12.0234 2.46094H13.7989L10.7543 5.50554C9.64737 4.73875 8.30401 4.28906 6.85547 4.28906C3.06928 4.28906 0 7.35834 0 11.1445C0 14.9307 3.06928 18 6.85547 18C10.6417 18 13.7109 14.9307 13.7109 11.1445C13.7109 9.69595 13.2613 8.35263 12.4945 7.24567L15.5391 4.20107V5.97656C15.5391 6.2678 15.7752 6.50391 16.0664 6.50391H17.4727C17.7639 6.50391 18 6.2678 18 5.97656V0.527344C18 0.236109 17.7639 0 17.4727 0ZM6.85547 15.5391C4.42842 15.5391 2.46094 13.5715 2.46094 11.1445C2.46094 8.71748 4.42842 6.75 6.85547 6.75C9.28252 6.75 11.25 8.71748 11.25 11.1445C11.25 13.5715 9.28252 15.5391 6.85547 15.5391Z" fill="black"/>
</svg>
