<svg width="18" height="18" viewBox="0 0 18 18" fill="none" xmlns="http://www.w3.org/2000/svg">
<path d="M14.8008 5.80078C14.8008 2.5971 12.2037 0 9 0C5.79632 0 3.19922 2.5971 3.19922 5.80078C3.19922 8.58217 5.15696 10.906 7.76953 11.4704V13.0781H5.83594C5.5447 13.0781 5.30859 13.3142 5.30859 13.6055V15.0117C5.30859 15.303 5.5447 15.5391 5.83594 15.5391H7.76953V17.4727C7.76953 17.7639 8.00564 18 8.29688 18H9.70312C9.99436 18 10.2305 17.7639 10.2305 17.4727V15.5391H12.1641C12.4553 15.5391 12.6914 15.303 12.6914 15.0117V13.6055C12.6914 13.3142 12.4553 13.0781 12.1641 13.0781H10.2305V11.4704C12.843 10.906 14.8008 8.58217 14.8008 5.80078ZM5.66016 5.80078C5.66016 3.95624 7.15546 2.46094 9 2.46094C10.8445 2.46094 12.3398 3.95624 12.3398 5.80078C12.3398 7.64532 10.8445 9.14062 9 9.14062C7.15546 9.14062 5.66016 7.64532 5.66016 5.80078Z" fill="black"/>
</svg>
